<?xml version="1.0" standalone="no"?>
<!DOCTYPE svg PUBLIC "-//W3C//DTD SVG 20010904//EN"
 "http://www.w3.org/TR/2001/REC-SVG-20010904/DTD/svg10.dtd">
<svg version="1.0" xmlns="http://www.w3.org/2000/svg"
 width="1024.000000pt" height="1024.000000pt" viewBox="0 0 1024.000000 1024.000000"
 preserveAspectRatio="xMidYMid meet">
<metadata>
Created by potrace 1.11, written by Peter Selinger 2001-2013
</metadata>
<g transform="translate(0.000000,1024.000000) scale(0.100000,-0.100000)"
fill="#000000" stroke="none">
<path d="M4379 9595 c-3 -2 -21 -7 -40 -10 -38 -5 -74 -13 -74 -15 0 -1 -8 -3
-17 -5 -10 -2 -47 -17 -82 -35 -126 -61 -229 -176 -281 -313 -26 -70 -38 -130
-39 -194 -1 -24 -3 -43 -6 -43 -4 0 -5 -1000 -1 -1125 1 -16 1 -38 1 -47 0
-10 0 -25 0 -33 0 -8 0 -21 0 -27 0 -7 0 -34 1 -59 1 -25 0 -50 -4 -55 -3 -6
-2 -16 3 -24 5 -8 5 -21 0 -30 -5 -9 -5 -22 0 -30 4 -7 4 -24 0 -36 -6 -14 -5
-26 0 -29 5 -3 6 -15 0 -29 -4 -12 -5 -29 0 -36 5 -7 5 -23 0 -34 -4 -12 -4
-31 1 -43 5 -13 4 -25 -1 -28 -6 -4 -7 -13 -1 -23 5 -10 6 -24 1 -33 -5 -8 -5
-21 0 -29 4 -7 4 -24 0 -36 -6 -14 -5 -26 0 -29 5 -3 6 -15 0 -29 -4 -12 -5
-29 0 -36 5 -7 5 -23 0 -34 -4 -12 -4 -31 1 -43 5 -13 4 -25 -1 -28 -6 -4 -7
-13 -1 -23 5 -10 6 -24 1 -33 -5 -8 -5 -21 0 -29 4 -7 4 -24 0 -36 -6 -14 -5
-26 0 -29 5 -3 6 -15 0 -29 -4 -12 -5 -29 0 -36 5 -7 5 -23 0 -34 -4 -12 -4
-31 1 -43 5 -13 4 -25 -1 -28 -6 -4 -7 -13 -1 -23 5 -10 6 -24 1 -33 -5 -8 -5
-21 0 -29 4 -7 4 -24 0 -36 -6 -14 -5 -26 0 -29 5 -3 6 -15 0 -29 -4 -12 -5
-29 0 -36 5 -7 5 -23 1 -34 -8 -23 -7 -56 2 -80 3 -8 2 -18 -3 -21 -6 -3 -6
-15 0 -30 6 -15 6 -27 0 -30 -6 -3 -6 -15 0 -30 6 -15 6 -27 0 -30 -6 -3 -6
-15 0 -30 6 -15 6 -27 0 -30 -6 -3 -6 -15 0 -30 6 -15 6 -27 0 -30 -6 -3 -6
-15 0 -30 6 -15 6 -27 0 -30 -6 -3 -6 -15 0 -30 6 -15 6 -27 0 -30 -6 -3 -6
-15 0 -30 6 -15 6 -27 0 -30 -6 -3 -6 -15 0 -30 6 -15 6 -27 0 -30 -6 -3 -6
-15 0 -30 6 -15 6 -27 0 -30 -6 -3 -6 -15 0 -30 6 -15 6 -27 0 -30 -6 -3 -6
-15 0 -30 6 -15 6 -27 0 -30 -6 -3 -6 -15 0 -30 6 -15 6 -27 0 -30 -6 -3 -6
-15 0 -30 6 -15 6 -27 0 -30 -6 -3 -6 -15 0 -30 6 -15 6 -27 0 -30 -6 -3 -6
-15 0 -30 6 -15 6 -27 0 -30 -6 -3 -6 -15 0 -30 6 -15 6 -27 0 -30 -6 -3 -6
-15 0 -30 6 -15 6 -27 0 -30 -6 -3 -6 -15 0 -30 6 -15 6 -27 0 -30 -6 -3 -6
-15 0 -30 6 -15 6 -27 0 -30 -6 -3 -6 -15 0 -30 6 -15 6 -27 0 -30 -6 -3 -6
-15 0 -30 6 -15 6 -27 0 -30 -6 -3 -6 -15 0 -30 6 -15 6 -27 0 -30 -6 -3 -6
-15 0 -30 6 -15 6 -27 0 -30 -6 -3 -6 -15 0 -30 6 -15 6 -27 0 -30 -6 -3 -6
-15 0 -30 6 -15 6 -27 0 -30 -6 -3 -6 -15 0 -30 6 -15 6 -27 0 -30 -6 -3 -6
-15 0 -30 6 -15 6 -27 0 -30 -6 -3 -6 -15 0 -30 6 -15 6 -27 0 -30 -6 -3 -6
-15 0 -30 6 -15 6 -27 0 -30 -6 -3 -6 -15 0 -30 6 -15 6 -27 0 -30 -6 -3 -6
-15 0 -30 6 -15 6 -27 0 -30 -6 -3 -6 -15 0 -30 6 -15 6 -27 0 -30 -6 -3 -6
-15 0 -30 6 -15 6 -27 0 -30 -6 -3 -6 -15 0 -30 6 -15 6 -27 0 -30 -6 -3 -6
-15 0 -30 6 -15 6 -27 0 -30 -6 -3 -6 -15 0 -30 6 -15 6 -27 0 -30 -6 -3 -6
-15 0 -30 6 -15 6 -27 0 -30 -6 -3 -6 -15 0 -30 6 -15 6 -27 0 -30 -6 -3 -6
-15 0 -30 6 -15 6 -27 0 -30 -6 -3 -6 -15 0 -30 6 -15 6 -27 -1 -30 -5 -4 -7
-11 -3 -16 8 -13 9 -103 1 -115 -3 -6 -2 -16 3 -24 5 -8 5 -21 0 -30 -5 -9 -5
-22 0 -30 4 -7 4 -24 0 -36 -6 -14 -5 -26 0 -29 5 -3 6 -15 0 -29 -4 -12 -5
-29 0 -36 4 -7 5 -23 0 -34 -4 -12 -4 -31 1 -43 5 -13 4 -25 -1 -28 -6 -4 -7
-13 -1 -23 5 -10 6 -24 1 -33 -5 -8 -5 -21 0 -29 4 -7 4 -24 0 -36 -6 -14 -5
-26 0 -29 5 -3 6 -15 0 -29 -4 -12 -5 -29 0 -36 5 -7 5 -23 0 -34 -4 -12 -4
-31 1 -43 5 -13 4 -25 -1 -28 -6 -4 -7 -13 -1 -23 5 -10 6 -24 1 -33 -5 -8 -5
-21 0 -29 4 -7 4 -24 0 -36 -6 -14 -5 -26 0 -29 5 -3 6 -15 0 -29 -4 -12 -5
-29 0 -36 5 -7 5 -23 0 -34 -4 -12 -4 -31 1 -43 5 -13 4 -25 -1 -28 -6 -4 -7
-13 -1 -23 5 -10 6 -24 1 -33 -5 -8 -5 -21 0 -29 4 -7 4 -24 0 -36 -6 -14 -5
-26 0 -29 5 -3 6 -15 0 -29 -4 -12 -4 -29 0 -36 5 -8 6 -18 4 -22 -8 -13 -10
-89 -2 -94 4 -3 3 -16 -2 -29 -6 -15 -6 -27 0 -30 6 -3 6 -15 0 -30 -6 -15 -6
-27 0 -30 6 -3 6 -15 0 -30 -6 -15 -6 -27 0 -30 6 -3 6 -15 0 -30 -6 -15 -6
-27 0 -30 6 -3 6 -15 0 -30 -6 -15 -6 -27 0 -30 6 -3 6 -15 0 -30 -6 -15 -6
-27 0 -30 6 -3 6 -15 0 -30 -6 -15 -6 -27 0 -30 6 -3 6 -15 0 -30 -6 -15 -6
-27 0 -30 6 -3 6 -15 0 -30 -6 -15 -6 -27 0 -30 5 -3 7 -11 4 -18 -9 -24 -10
-147 -1 -147 5 0 5 -6 0 -12 -6 -7 -10 -20 -10 -28 0 -8 -3 -49 -8 -90 -11
-110 -13 -125 -15 -125 -1 0 -4 -11 -5 -25 -7 -47 -16 -95 -21 -110 -3 -8 -8
-26 -10 -40 -8 -39 -43 -159 -66 -220 -11 -30 -21 -59 -22 -65 -6 -24 -78
-186 -96 -215 -5 -8 -17 -31 -27 -50 -9 -19 -32 -59 -50 -88 -18 -29 -33 -57
-33 -62 0 -6 -4 -10 -10 -10 -5 0 -10 -5 -10 -10 0 -11 5056 -8 5115 3 17 3
46 8 65 12 19 4 47 8 62 10 15 2 46 9 70 15 24 7 50 13 59 15 37 7 105 29 116
38 7 5 17 6 23 2 5 -3 10 -1 10 6 0 7 3 10 6 6 10 -10 274 107 282 125 2 5 8
8 14 8 6 0 41 19 77 41 57 36 93 62 205 149 27 21 218 211 236 235 8 11 36 47
62 80 58 75 155 234 164 269 3 14 9 26 13 26 7 0 39 65 41 82 1 4 12 32 25 62
13 30 21 57 18 60 -4 3 -2 6 4 6 5 0 10 6 10 13 0 6 12 51 26 99 15 48 28 100
31 115 2 16 5 28 6 28 1 0 3 9 5 20 1 11 5 38 9 60 3 22 9 67 13 100 10 74 11
6717 1 6765 -15 79 -76 232 -99 250 -3 3 -25 27 -48 53 -22 27 -41 46 -41 44
0 -3 -13 7 -29 21 -41 39 -165 100 -216 107 -11 2 -40 8 -65 14 -45 10 -5341
17 -5351 6z"/>
<path d="M127 5123 c-2 -2 -32 -4 -66 -4 l-62 -1 4 -1657 c1 -911 6 -1667 10
-1681 4 -14 10 -41 13 -60 4 -19 13 -60 21 -90 8 -30 17 -65 20 -78 3 -12 9
-25 14 -28 5 -3 9 -12 9 -21 0 -9 22 -62 49 -117 92 -191 212 -343 371 -472
19 -16 37 -31 40 -34 3 -3 23 -17 45 -31 84 -56 125 -79 140 -79 8 0 15 -4 15
-9 0 -8 156 -74 205 -87 6 -1 37 -9 70 -18 93 -25 455 -22 550 5 39 11 77 21
85 23 32 8 122 47 177 76 110 58 122 65 221 140 73 55 222 209 222 230 0 5 4
10 9 10 13 0 104 146 143 230 75 160 118 322 122 460 1 31 5 61 9 67 4 7 3 14
-3 18 -7 4 -7 12 0 26 8 13 7 19 0 19 -8 0 -8 6 0 20 8 14 8 20 0 20 -8 0 -8
6 0 20 8 14 8 20 0 20 -8 0 -8 6 0 20 8 14 8 20 0 20 -8 0 -8 6 0 20 8 14 8
20 0 20 -8 0 -8 6 0 20 8 14 8 20 0 20 -8 0 -8 6 0 20 8 14 8 20 0 20 -8 0 -8
6 0 20 8 14 8 20 0 20 -8 0 -8 6 0 20 8 14 8 20 0 20 -8 0 -8 6 0 20 8 14 8
20 0 20 -8 0 -8 6 0 20 8 14 8 20 0 20 -8 0 -8 6 0 20 8 14 8 20 0 20 -8 0 -8
6 0 20 8 14 8 20 0 20 -8 0 -8 6 0 20 8 14 8 20 0 20 -8 0 -8 6 0 20 8 14 8
20 0 20 -6 0 -8 5 -4 11 10 17 11 52 2 71 -5 10 -4 19 2 23 7 4 7 12 0 25 -7
13 -7 21 0 25 7 4 7 13 0 26 -8 13 -7 19 0 19 7 0 8 6 0 19 -7 13 -7 22 0 26
7 4 7 12 0 25 -7 13 -7 21 0 25 7 4 7 12 0 25 -7 13 -7 21 0 25 7 4 7 12 0 25
-7 13 -7 21 0 25 7 4 7 13 0 26 -8 13 -7 19 0 19 7 0 8 6 0 19 -7 13 -7 22 0
26 7 4 7 12 0 25 -7 13 -7 21 0 25 7 4 7 12 0 25 -7 13 -7 21 0 25 7 4 7 12 0
25 -7 13 -7 21 0 25 7 4 7 13 0 26 -8 13 -7 19 0 19 7 0 8 6 0 19 -7 13 -7 22
0 26 7 4 7 12 0 25 -7 13 -7 21 0 25 7 4 7 12 0 25 -7 13 -7 21 0 25 7 4 7 12
0 25 -7 13 -7 21 0 25 7 4 7 13 0 26 -8 13 -7 19 0 19 7 0 8 6 0 19 -7 13 -7
22 0 26 7 4 7 12 0 25 -7 13 -7 21 0 25 7 4 7 12 0 25 -7 13 -7 21 0 25 7 4 7
12 0 25 -7 13 -7 21 0 25 7 4 7 13 0 26 -8 13 -7 19 0 19 7 0 8 6 0 19 -7 13
-7 22 0 26 7 4 7 12 0 25 -7 13 -7 21 0 25 7 4 7 12 0 25 -7 13 -7 21 0 25 7
4 7 12 0 25 -7 13 -7 21 0 25 7 4 7 13 0 26 -8 13 -7 19 0 19 7 0 8 6 0 19 -7
13 -7 22 0 26 7 4 7 12 0 25 -7 13 -7 21 0 25 7 4 7 12 0 25 -7 13 -7 21 0 25
7 4 7 12 0 25 -7 13 -7 21 0 25 7 4 7 13 0 26 -8 13 -7 19 0 19 7 0 8 6 0 19
-7 13 -7 22 0 26 7 4 7 12 0 25 -7 13 -7 21 0 25 7 4 7 12 0 25 -7 13 -7 21 0
25 7 4 7 12 0 25 -7 13 -7 21 0 25 7 4 7 13 0 26 -8 13 -7 19 0 19 7 0 8 6 0
19 -7 13 -7 22 0 26 7 4 7 12 0 25 -7 13 -7 21 0 25 7 4 7 12 0 25 -7 13 -7
21 0 25 7 4 7 12 0 25 -7 13 -7 21 0 25 7 4 7 13 0 26 -8 13 -7 19 0 19 7 0 8
6 0 19 -7 13 -7 22 0 26 7 4 7 12 0 25 -7 13 -7 21 0 25 7 4 7 12 0 25 -7 13
-7 21 0 25 7 4 7 12 0 25 -7 13 -7 21 0 25 7 4 7 13 0 26 -8 13 -7 19 0 19 7
0 8 6 0 19 -7 13 -7 22 0 26 7 4 7 12 0 25 -7 13 -7 21 0 25 7 4 7 12 0 25 -7
13 -7 21 0 25 7 4 7 13 0 24 -5 11 -6 21 0 27 6 6 5 17 -4 30 -12 17 -22 19
-74 14 -32 -3 -69 -3 -82 0 -13 3 -47 3 -74 0 -28 -3 -64 -3 -81 0 -16 3 -52
3 -80 0 -27 -3 -63 -3 -80 0 -16 3 -50 3 -75 0 -25 -3 -61 -3 -80 0 -19 3 -57
3 -85 0 -27 -3 -63 -3 -80 0 -16 3 -50 3 -75 0 -25 -3 -61 -3 -80 0 -19 3 -57
3 -85 0 -27 -3 -63 -3 -80 0 -16 3 -50 3 -75 0 -25 -3 -61 -3 -80 0 -19 3 -57
3 -85 0 -27 -3 -63 -3 -80 0 -16 3 -50 3 -75 0 -25 -3 -61 -3 -80 0 -19 3 -57
3 -85 0 -27 -3 -63 -3 -80 0 -16 3 -50 3 -75 0 -25 -3 -61 -3 -80 0 -19 3 -57
3 -85 0 -27 -3 -63 -3 -80 0 -16 3 -50 3 -75 0 -25 -3 -61 -3 -80 0 -19 3 -58
3 -86 0 -27 -3 -64 -3 -82 1 -17 3 -33 5 -35 2z"/>
</g>
</svg>
